<mxfile host="app.diagrams.net" modified="2020-08-20T15:01:26.016Z" agent="5.0 (Macintosh; Intel Mac OS X 10_15_4) AppleWebKit/537.36 (KHTML, like Gecko) Chrome/84.0.4147.105 Safari/537.36" etag="Epkj62lolM2oJ9mZYHEY" version="13.6.3" type="github">
  <diagram id="oM8DHCUMmLXBgUnpSYF_" name="第 1 页">
    <mxGraphModel dx="946" dy="614" grid="0" gridSize="10" guides="1" tooltips="1" connect="1" arrows="1" fold="1" page="1" pageScale="1" pageWidth="1920" pageHeight="2200" math="0" shadow="0">
      <root>
        <mxCell id="0" />
        <mxCell id="1" parent="0" />
        <mxCell id="drQn2ebPtVYKYgQxRYwd-1" value="" style="shape=curlyBracket;whiteSpace=wrap;html=1;rounded=1;strokeColor=#333333;direction=north;" vertex="1" parent="1">
          <mxGeometry x="157" y="318" width="185" height="8" as="geometry" />
        </mxCell>
        <mxCell id="drQn2ebPtVYKYgQxRYwd-4" value="&lt;p class=&quot;p1&quot; style=&quot;margin: 0px; font-stretch: normal; font-size: 10px; line-height: normal; font-family: &amp;quot;helvetica neue&amp;quot;; color: rgb(15, 23, 33);&quot;&gt;queryThemeConfig&lt;/p&gt;" style="text;html=1;strokeColor=none;fillColor=none;align=center;verticalAlign=middle;whiteSpace=wrap;rounded=0;fontSize=10;" vertex="1" parent="1">
          <mxGeometry x="144" y="196" width="133" height="20" as="geometry" />
        </mxCell>
        <mxCell id="drQn2ebPtVYKYgQxRYwd-7" value="&lt;p class=&quot;p1&quot; style=&quot;margin: 0px ; font-stretch: normal ; font-size: 10px ; line-height: normal ; font-family: &amp;#34;helvetica neue&amp;#34; ; color: rgb(15 , 23 , 33)&quot;&gt;getCurrentLocation&lt;/p&gt;" style="text;html=1;strokeColor=none;fillColor=none;align=center;verticalAlign=middle;whiteSpace=wrap;rounded=0;fontSize=10;" vertex="1" parent="1">
          <mxGeometry x="193" y="240" width="40" height="20" as="geometry" />
        </mxCell>
        <mxCell id="drQn2ebPtVYKYgQxRYwd-9" value="" style="shape=curlyBracket;whiteSpace=wrap;html=1;rounded=1;strokeColor=#333333;direction=north;" vertex="1" parent="1">
          <mxGeometry x="352" y="318" width="222" height="8" as="geometry" />
        </mxCell>
        <mxCell id="drQn2ebPtVYKYgQxRYwd-11" value="&lt;p class=&quot;p1&quot; style=&quot;margin: 0px ; font-stretch: normal ; line-height: normal ; font-family: &amp;#34;helvetica neue&amp;#34; ; color: rgb(15 , 23 , 33)&quot;&gt;&lt;font style=&quot;font-size: 11px&quot;&gt;queryCateShopH5&lt;/font&gt;&lt;/p&gt;" style="text;html=1;strokeColor=none;fillColor=none;align=center;verticalAlign=middle;whiteSpace=wrap;rounded=0;fontSize=10;" vertex="1" parent="1">
          <mxGeometry x="391" y="196" width="40" height="20" as="geometry" />
        </mxCell>
        <mxCell id="drQn2ebPtVYKYgQxRYwd-17" value="" style="shape=crossbar;whiteSpace=wrap;html=1;rounded=1;strokeColor=#333333;" vertex="1" parent="1">
          <mxGeometry x="352" y="223" width="223" height="4" as="geometry" />
        </mxCell>
        <mxCell id="drQn2ebPtVYKYgQxRYwd-20" value="" style="shape=crossbar;whiteSpace=wrap;html=1;rounded=1;strokeColor=#333333;" vertex="1" parent="1">
          <mxGeometry x="157" y="221" width="124" height="4" as="geometry" />
        </mxCell>
        <mxCell id="drQn2ebPtVYKYgQxRYwd-21" value="" style="shape=crossbar;whiteSpace=wrap;html=1;rounded=1;strokeColor=#333333;" vertex="1" parent="1">
          <mxGeometry x="157" y="264" width="108" height="4" as="geometry" />
        </mxCell>
        <mxCell id="drQn2ebPtVYKYgQxRYwd-22" value="&lt;p class=&quot;p1&quot; style=&quot;margin: 0px ; font-stretch: normal ; line-height: normal ; font-family: &amp;#34;helvetica neue&amp;#34; ; color: rgb(15 , 23 , 33)&quot;&gt;&lt;font style=&quot;font-size: 12px&quot;&gt;getHistoryOrderList&lt;/font&gt;&lt;/p&gt;" style="text;html=1;strokeColor=none;fillColor=none;align=center;verticalAlign=middle;whiteSpace=wrap;rounded=0;fontSize=10;" vertex="1" parent="1">
          <mxGeometry x="387" y="240" width="40" height="20" as="geometry" />
        </mxCell>
        <mxCell id="drQn2ebPtVYKYgQxRYwd-23" value="" style="shape=crossbar;whiteSpace=wrap;html=1;rounded=1;strokeColor=#333333;" vertex="1" parent="1">
          <mxGeometry x="352" y="264" width="137" height="4" as="geometry" />
        </mxCell>
      </root>
    </mxGraphModel>
  </diagram>
</mxfile>
